<svg width="93" height="93" viewBox="0 0 93 93" fill="none" xmlns="http://www.w3.org/2000/svg">
<path d="M46.5 0C72.1812 0 93 20.8188 93 46.5C93 72.1812 72.1812 93 46.5 93C20.8188 93 0 72.1812 0 46.5C0 20.8188 20.8188 0 46.5 0ZM48.8194 90.1314C48.806 90.1246 48.7904 90.1261 48.7756 90.1288C48.7621 90.1313 48.749 90.1356 48.7367 90.1416L48.505 90.2559C48.4885 90.264 48.471 90.27 48.4529 90.2736L48.443 90.2756C48.4165 90.2809 48.3891 90.2797 48.3631 90.2723C48.3533 90.2695 48.3438 90.2659 48.3347 90.2614L48.0732 90.1325C48.043 90.1204 48.015 90.1248 47.995 90.1385C47.9841 90.1459 47.9777 90.1581 47.9728 90.1704C47.9675 90.1838 47.9645 90.198 47.9639 90.2123L47.9002 91.8166C47.8993 91.8382 47.9015 91.8598 47.9068 91.8807L47.9093 91.8907C47.9152 91.9144 47.9259 91.9366 47.9408 91.956C47.9515 91.9699 47.9643 91.9822 47.9786 91.9924L48.3415 92.2506C48.3537 92.2593 48.3674 92.2657 48.3819 92.2696L48.3865 92.2708C48.4071 92.2763 48.4289 92.2757 48.4492 92.2689C48.4594 92.2655 48.4691 92.2606 48.4779 92.2543L48.8407 91.9962C48.8585 91.9835 48.8743 91.9681 48.8875 91.9505L48.8895 91.9478C48.9058 91.9262 48.9173 91.9014 48.9235 91.8751C48.9276 91.8579 48.9293 91.8401 48.9286 91.8224L48.8651 90.2293C48.8642 90.2061 48.8633 90.182 48.8514 90.1621C48.8432 90.1485 48.8321 90.1379 48.8194 90.1314ZM49.85 89.696C49.8344 89.6874 49.8157 89.6883 49.7981 89.691C49.7824 89.6934 49.7671 89.6983 49.7529 89.7054L49.076 90.0457C49.0637 90.0519 49.0526 90.0599 49.0429 90.0696L49.0385 90.074C49.0255 90.087 49.0162 90.103 49.0114 90.1207C49.0086 90.1311 49.0074 90.1419 49.0078 90.1527L49.076 91.7808C49.0766 91.7952 49.0797 91.8095 49.0853 91.8228L49.0865 91.8256C49.0929 91.8411 49.1028 91.8549 49.1154 91.8659C49.1233 91.8728 49.1321 91.8785 49.1415 91.8829L49.9061 92.2366C49.9408 92.2482 49.9734 92.2425 49.9973 92.226C50.0134 92.2149 50.0212 92.196 50.0266 92.1772C50.0315 92.1601 50.0335 92.1423 50.0325 92.1245L49.9046 89.8147C49.903 89.7864 49.9009 89.7571 49.8865 89.7326C49.8771 89.7166 49.8648 89.7042 49.85 89.696ZM47.0541 89.6946C47.0365 89.6866 47.0168 89.6846 46.9979 89.6888C46.988 89.691 46.9786 89.6948 46.9701 89.7001C46.9548 89.7097 46.9459 89.7263 46.9387 89.743C46.9305 89.7623 46.9257 89.7828 46.9245 89.8038L46.7945 92.1514C46.7945 92.1836 46.8075 92.2084 46.8284 92.2257C46.8472 92.2413 46.8731 92.2427 46.8972 92.2395C46.9113 92.2376 46.9251 92.2336 46.938 92.2276L47.6838 91.8825C47.6928 91.8784 47.7013 91.8731 47.7091 91.8669L47.7134 91.8635C47.7282 91.8516 47.7396 91.8358 47.7461 91.8178C47.7498 91.8078 47.7518 91.7972 47.7523 91.7864L47.8169 90.1527C47.8173 90.1419 47.8162 90.131 47.8135 90.1205C47.8085 90.1005 47.7982 90.0822 47.7835 90.0675L47.7814 90.0654C47.772 90.056 47.761 90.0481 47.749 90.0421L47.0541 89.6946Z" fill="#29C52F"/>
<path d="M46.5834 17C62.9222 17 76.1667 30.2445 76.1667 46.5833C76.1667 62.9222 62.9222 76.1667 46.5834 76.1667C41.5481 76.1741 36.5951 74.8907 32.197 72.4392L31.2947 71.9126L22.325 74.5514C21.8369 74.6953 21.3201 74.712 20.8237 74.6002C20.3273 74.4883 19.8677 74.2516 19.4884 73.9123C19.1091 73.573 18.8228 73.1425 18.6565 72.6616C18.4903 72.1806 18.4496 71.6652 18.5384 71.1641L18.6153 70.8417L21.2541 61.872C18.4643 57.2609 16.9929 51.9727 17 46.5833C17 30.2445 30.2445 17 46.5834 17ZM46.5834 22.9167C42.3459 22.9159 38.186 24.0528 34.538 26.2087C30.89 28.3647 27.8877 31.4605 25.8447 35.1729C23.8017 38.8853 22.7929 43.0781 22.9237 47.3135C23.0544 51.549 24.3199 55.6716 26.588 59.2509C27.1737 60.1739 27.4252 61.3099 27.227 62.437L27.1116 62.9192L25.807 67.3597L30.2474 66.0551C31.5284 65.6764 32.8596 65.9072 33.9158 66.5787C37.0171 68.5424 40.5326 69.7578 44.1846 70.1288C47.8365 70.4998 51.5247 70.0162 54.9575 68.7164C58.3904 67.4165 61.4738 65.3359 63.9641 62.639C66.4543 59.9422 68.2832 56.7031 69.306 53.1778C70.3288 49.6524 70.5175 45.9375 69.8573 42.3266C69.1971 38.7157 67.706 35.3079 65.5019 32.3726C63.2978 29.4373 60.4411 27.0549 57.1577 25.4137C53.8742 23.7726 50.2541 22.9177 46.5834 22.9167ZM38.0101 32.336C38.3376 32.1942 38.6964 32.14 39.0512 32.1789C39.406 32.2178 39.7446 32.3484 40.0336 32.5579C41.5246 33.6465 42.7079 35.108 43.7256 36.5339L44.693 37.9361L45.1456 38.6017C45.4068 38.9836 45.5349 39.4408 45.5103 39.9028C45.4857 40.3648 45.3097 40.8058 45.0095 41.1578L44.7876 41.3826L42.0541 43.412C41.9226 43.5073 41.83 43.647 41.7936 43.8053C41.7571 43.9635 41.7793 44.1297 41.8559 44.2729C42.4772 45.397 43.5747 47.0744 44.835 48.3347C46.0982 49.5949 47.8525 50.7664 49.0536 51.4557C49.3139 51.6036 49.6275 51.5563 49.8405 51.364L49.9529 51.2309L51.7309 48.524C52.0572 48.0892 52.5393 47.7976 53.0759 47.7105C53.6126 47.6233 54.1621 47.7474 54.6093 48.0566L56.2157 49.1778C57.8132 50.3167 59.3486 51.5415 60.5644 53.0946C60.7905 53.3859 60.9342 53.7326 60.9806 54.0985C61.0269 54.4643 60.9741 54.8359 60.8277 55.1743C59.6562 57.9078 56.689 60.236 53.6064 60.1236L53.1361 60.094L52.571 60.0408C52.4644 60.0282 52.3579 60.0143 52.2515 59.9994L51.5474 59.881C48.8139 59.3663 44.4326 57.8161 39.8916 53.278C35.3535 48.737 33.8034 44.3557 33.2886 41.6222L33.1703 40.9181L33.0963 40.3028L33.0579 39.7851C33.0532 39.7112 33.0492 39.6372 33.046 39.5632C32.9336 36.4747 35.2736 33.5075 38.0101 32.336Z" fill="white"/>
<rect x="45" y="88" width="7" height="5" rx="2.5" fill="#29C52F"/>
</svg>
