<svg width="24" height="24" viewBox="0 0 24 24" fill="none" xmlns="http://www.w3.org/2000/svg">
<path d="M19.0425 4.95266C18.1257 4.02659 17.0337 3.29233 15.8301 2.79271C14.6266 2.2931 13.3356 2.03812 12.0325 2.04266C6.57248 2.04266 2.12248 6.49266 2.12248 11.9527C2.12248 13.7027 2.58248 15.4027 3.44248 16.9027L2.04248 22.0427L7.29248 20.6627C8.74248 21.4527 10.3725 21.8727 12.0325 21.8727C17.4925 21.8727 21.9425 17.4227 21.9425 11.9627C21.9425 9.31266 20.9125 6.82266 19.0425 4.95266ZM12.0325 20.1927C10.5525 20.1927 9.10248 19.7927 7.83248 19.0427L7.53248 18.8627L4.41248 19.6827L5.24248 16.6427L5.04248 16.3327C4.22023 15.0196 3.78362 13.5019 3.78248 11.9527C3.78248 7.41266 7.48248 3.71266 12.0225 3.71266C14.2225 3.71266 16.2925 4.57266 17.8425 6.13266C18.61 6.89663 19.2182 7.80532 19.6319 8.80609C20.0456 9.80685 20.2565 10.8798 20.2525 11.9627C20.2725 16.5027 16.5725 20.1927 12.0325 20.1927ZM16.5525 14.0327C16.3025 13.9127 15.0825 13.3127 14.8625 13.2227C14.6325 13.1427 14.4725 13.1027 14.3025 13.3427C14.1325 13.5927 13.6625 14.1527 13.5225 14.3127C13.3825 14.4827 13.2325 14.5027 12.9825 14.3727C12.7325 14.2527 11.9325 13.9827 10.9925 13.1427C10.2525 12.4827 9.76248 11.6727 9.61248 11.4227C9.47248 11.1727 9.59248 11.0427 9.72248 10.9127C9.83248 10.8027 9.97248 10.6227 10.0925 10.4827C10.2125 10.3427 10.2625 10.2327 10.3425 10.0727C10.4225 9.90266 10.3825 9.76266 10.3225 9.64266C10.2625 9.52266 9.76248 8.30266 9.56248 7.80266C9.36248 7.32266 9.15248 7.38266 9.00248 7.37266H8.52248C8.35248 7.37266 8.09248 7.43266 7.86248 7.68266C7.64248 7.93266 7.00248 8.53266 7.00248 9.75266C7.00248 10.9727 7.89248 12.1527 8.01248 12.3127C8.13248 12.4827 9.76248 14.9827 12.2425 16.0527C12.8325 16.3127 13.2925 16.4627 13.6525 16.5727C14.2425 16.7627 14.7825 16.7327 15.2125 16.6727C15.6925 16.6027 16.6825 16.0727 16.8825 15.4927C17.0925 14.9127 17.0925 14.4227 17.0225 14.3127C16.9525 14.2027 16.8025 14.1527 16.5525 14.0327Z" fill="white"/>
</svg>
