<svg width="24" height="24" viewBox="0 0 24 24" fill="none" xmlns="http://www.w3.org/2000/svg">
<path d="M11.9783 0C8.72766 0 8.3189 0.0148295 7.04172 0.0711818C5.76454 0.1305 4.89462 0.329216 4.1325 0.622841C3.33309 0.920647 2.609 1.38779 2.01085 1.99161C1.40157 2.58434 0.929973 3.30141 0.628859 4.09295C0.332397 4.8463 0.130264 5.70937 0.0718696 6.96989C0.0149728 8.23781 0 8.64118 0 11.8651C0 15.0861 0.0149728 15.4895 0.0718696 16.7544C0.131761 18.0179 0.332397 18.8795 0.628859 19.6343C0.935802 20.4144 1.34456 21.0757 2.01085 21.7357C2.67564 22.3956 3.34343 22.8019 4.131 23.1044C4.89462 23.3981 5.76304 23.5983 7.03873 23.6561C8.3174 23.7124 8.72466 23.7273 11.9783 23.7273C15.2319 23.7273 15.6376 23.7124 16.9163 23.6561C18.1905 23.5968 19.0634 23.3981 19.8255 23.1044C20.6244 22.8065 21.348 22.3393 21.9457 21.7357C22.612 21.0757 23.0207 20.4144 23.3277 19.6343C23.6226 18.8795 23.8248 18.0179 23.8846 16.7544C23.9415 15.4895 23.9565 15.0861 23.9565 11.8636C23.9565 8.64118 23.9415 8.23781 23.8846 6.97137C23.8248 5.70938 23.6226 4.8463 23.3277 4.09295C23.0266 3.30139 22.555 2.58431 21.9457 1.99161C21.3477 1.38756 20.6236 0.920389 19.824 0.622841C19.0604 0.329216 18.189 0.129017 16.9148 0.0711818C15.6361 0.0148295 15.2304 0 11.9753 0H11.9798H11.9783ZM10.9047 2.13842H11.9798C15.178 2.13842 15.5568 2.1488 16.819 2.20664C17.9869 2.25854 18.6217 2.45281 19.0439 2.61445C19.6024 2.82948 20.0022 3.08751 20.4214 3.50274C20.8407 3.91797 21.0997 4.31243 21.3168 4.86706C21.4815 5.28377 21.6762 5.91254 21.7286 7.06924C21.787 8.31938 21.7989 8.69456 21.7989 11.8607C21.7989 15.0268 21.787 15.4034 21.7286 16.6536C21.6762 17.8103 21.48 18.4376 21.3168 18.8558C21.1248 19.3709 20.8183 19.8366 20.4199 20.2186C20.0007 20.6338 19.6024 20.8904 19.0424 21.1054C18.6232 21.2685 17.9884 21.4613 16.819 21.5147C15.5568 21.5711 15.178 21.5844 11.9798 21.5844C8.78156 21.5844 8.40125 21.5711 7.13904 21.5147C5.97116 21.4613 5.33781 21.2685 4.91558 21.1054C4.39527 20.9155 3.92457 20.6124 3.53808 20.2186C3.13943 19.8361 2.83244 19.3698 2.63971 18.8543C2.47651 18.4376 2.28036 17.8088 2.22796 16.6521C2.17106 15.402 2.15908 15.0268 2.15908 11.8577C2.15908 8.69011 2.17106 8.31641 2.22796 7.06628C2.28186 5.90957 2.47651 5.2808 2.64121 4.86261C2.85831 4.30947 3.11884 3.91352 3.53808 3.49829C3.95732 3.08306 4.35559 2.82651 4.91558 2.61148C5.33781 2.44836 5.97116 2.25557 7.13904 2.20219C8.24404 2.15177 8.67226 2.13694 10.9047 2.13545V2.13842ZM18.3732 4.10778C18.1844 4.10778 17.9975 4.14461 17.8231 4.21615C17.6487 4.2877 17.4902 4.39256 17.3568 4.52476C17.2233 4.65695 17.1174 4.81389 17.0452 4.98662C16.9729 5.15934 16.9358 5.34447 16.9358 5.53142C16.9358 5.71838 16.9729 5.9035 17.0452 6.07622C17.1174 6.24895 17.2233 6.40589 17.3568 6.53808C17.4902 6.67028 17.6487 6.77514 17.8231 6.84669C17.9975 6.91823 18.1844 6.95506 18.3732 6.95506C18.7544 6.95506 19.12 6.80507 19.3895 6.53808C19.6591 6.2711 19.8105 5.90899 19.8105 5.53142C19.8105 5.15385 19.6591 4.79174 19.3895 4.52476C19.12 4.25777 18.7544 4.10778 18.3732 4.10778ZM11.9798 5.77166C11.1638 5.75905 10.3535 5.90733 9.59605 6.20786C8.83855 6.50839 8.14898 6.95516 7.56749 7.52217C6.986 8.08919 6.5242 8.7651 6.20899 9.51057C5.89378 10.256 5.73145 11.0562 5.73145 11.8644C5.73145 12.6726 5.89378 13.4727 6.20899 14.2182C6.5242 14.9637 6.986 15.6396 7.56749 16.2066C8.14898 16.7736 8.83855 17.2204 9.59605 17.5209C10.3535 17.8214 11.1638 17.9697 11.9798 17.9571C13.5946 17.9321 15.1349 17.2793 16.2679 16.1394C17.401 14.9995 18.0361 13.464 18.0361 11.8644C18.0361 10.2648 17.401 8.72928 16.2679 7.58939C15.1349 6.4495 13.5946 5.79661 11.9798 5.77166ZM11.9798 7.9086C13.0388 7.9086 14.0545 8.32529 14.8034 9.067C15.5523 9.80872 15.973 10.8147 15.973 11.8636C15.973 12.9126 15.5523 13.9186 14.8034 14.6603C14.0545 15.402 13.0388 15.8187 11.9798 15.8187C10.9207 15.8187 9.90498 15.402 9.1561 14.6603C8.40722 13.9186 7.98651 12.9126 7.98651 11.8636C7.98651 10.8147 8.40722 9.80872 9.1561 9.067C9.90498 8.32529 10.9207 7.9086 11.9798 7.9086Z" fill="white"/>
</svg>
