<svg width="24" height="24" viewBox="0 0 24 24" fill="none" xmlns="http://www.w3.org/2000/svg">
<path d="M6.13037 5.21741C5.33472 5.21741 4.57166 5.53348 4.00905 6.09609C3.44644 6.6587 3.13037 7.42176 3.13037 8.21741V8.51891L12.1304 13.3654L21.1304 8.52041V8.21741C21.1304 7.42176 20.8143 6.6587 20.2517 6.09609C19.6891 5.53348 18.926 5.21741 18.1304 5.21741H6.13037ZM21.1304 10.2229L12.4859 14.8774C12.3766 14.9362 12.2545 14.967 12.1304 14.967C12.0063 14.967 11.8841 14.9362 11.7749 14.8774L3.13037 10.2229V17.2174C3.13037 18.0131 3.44644 18.7761 4.00905 19.3387C4.57166 19.9013 5.33472 20.2174 6.13037 20.2174H18.1304C18.926 20.2174 19.6891 19.9013 20.2517 19.3387C20.8143 18.7761 21.1304 18.0131 21.1304 17.2174V10.2229Z" fill="white"/>
</svg>
