<svg width="25" height="25" viewBox="0 0 25 25" fill="none" xmlns="http://www.w3.org/2000/svg">
<path d="M19.8438 5.11481C18.8888 4.15015 17.7513 3.3853 16.4976 2.86486C15.2439 2.34443 13.8992 2.07883 12.5417 2.08356C6.85425 2.08356 2.21883 6.71897 2.21883 12.4065C2.21883 14.2294 2.698 16.0002 3.59383 17.5627L2.1355 22.9169L7.60425 21.4794C9.11466 22.3023 10.8126 22.7398 12.5417 22.7398C18.2292 22.7398 22.8647 18.1044 22.8647 12.4169C22.8647 9.65647 21.7917 7.06272 19.8438 5.11481ZM12.5417 20.9898C11.0001 20.9898 9.48966 20.5731 8.16675 19.7919L7.85425 19.6044L4.60425 20.4586L5.46883 17.2919L5.2605 16.969C4.40398 15.6012 3.94919 14.0203 3.948 12.4065C3.948 7.67731 7.80216 3.82314 12.5313 3.82314C14.823 3.82314 16.9792 4.71898 18.5938 6.34398C19.3933 7.13977 20.0269 8.08633 20.4578 9.12879C20.8887 10.1713 21.1084 11.2889 21.1042 12.4169C21.1251 17.1461 17.2709 20.9898 12.5417 20.9898ZM17.2501 14.5731C16.9897 14.4481 15.7188 13.8231 15.4897 13.7294C15.2501 13.6461 15.0834 13.6044 14.9063 13.8544C14.7292 14.1148 14.2397 14.6981 14.0938 14.8648C13.948 15.0419 13.7917 15.0627 13.5313 14.9273C13.2709 14.8023 12.4376 14.5211 11.4584 13.6461C10.6876 12.9586 10.1772 12.1148 10.0209 11.8544C9.87508 11.594 10.0001 11.4586 10.1355 11.3231C10.2501 11.2086 10.3959 11.0211 10.5209 10.8752C10.6459 10.7294 10.698 10.6148 10.7813 10.4481C10.8647 10.2711 10.823 10.1252 10.7605 10.0002C10.698 9.87523 10.1772 8.60439 9.96883 8.08356C9.7605 7.58356 9.54175 7.64606 9.3855 7.63564H8.8855C8.70841 7.63564 8.43758 7.69814 8.198 7.95856C7.96883 8.21897 7.30216 8.84397 7.30216 10.1148C7.30216 11.3856 8.22925 12.6148 8.35425 12.7815C8.47925 12.9586 10.1772 15.5627 12.7605 16.6773C13.3751 16.9481 13.8542 17.1044 14.2292 17.219C14.8438 17.4169 15.4063 17.3856 15.8542 17.3231C16.3542 17.2502 17.3855 16.6981 17.5938 16.094C17.8126 15.4898 17.8126 14.9794 17.7397 14.8648C17.6667 14.7502 17.5105 14.6981 17.2501 14.5731Z" fill="#DAC182"/>
</svg>
