<svg width="25" height="25" viewBox="0 0 25 25" fill="none" xmlns="http://www.w3.org/2000/svg">
<g clip-path="url(#clip0_63_30)">
<path d="M12.4774 0C9.09131 0 8.66552 0.0154474 7.33512 0.0741477C6.00473 0.135937 5.09856 0.342933 4.30469 0.648793C3.47197 0.959007 2.71771 1.44561 2.09464 2.07459C1.45997 2.69202 0.968722 3.43897 0.655061 4.26349C0.346247 5.04822 0.135691 5.94727 0.0748641 7.2603C0.0155967 8.58105 0 9.00123 0 12.3595C0 15.7147 0.0155967 16.1349 0.0748641 17.4525C0.137251 18.7686 0.346247 19.6661 0.655061 20.4524C0.974793 21.2649 1.40058 21.9539 2.09464 22.6413C2.78713 23.3287 3.48274 23.752 4.30313 24.0671C5.09856 24.373 6.00317 24.5815 7.33201 24.6418C8.66396 24.7005 9.08819 24.7159 12.4774 24.7159C15.8665 24.7159 16.2892 24.7005 17.6211 24.6418C18.9484 24.58 19.8577 24.373 20.6516 24.0671C21.4838 23.7567 22.2375 23.2701 22.8601 22.6413C23.5541 21.9539 23.9799 21.2649 24.2996 20.4524C24.6069 19.6661 24.8175 18.7686 24.8798 17.4525C24.9391 16.1349 24.9547 15.7147 24.9547 12.358C24.9547 9.00123 24.9391 8.58106 24.8798 7.26184C24.8175 5.94727 24.6069 5.04822 24.2996 4.26349C23.986 3.43895 23.4948 2.69199 22.8601 2.07459C22.2372 1.44538 21.4829 0.958739 20.65 0.648793C19.8546 0.342933 18.9469 0.134393 17.6196 0.0741477C16.2876 0.0154474 15.865 0 12.4742 0H12.4789H12.4774ZM11.3591 2.22752H12.4789C15.8104 2.22752 16.205 2.23833 17.5198 2.29858C18.7363 2.35265 19.3976 2.55501 19.8374 2.72338C20.4192 2.94737 20.8356 3.21616 21.2723 3.64869C21.709 4.08121 21.9789 4.49212 22.205 5.06985C22.3766 5.50392 22.5793 6.1589 22.6339 7.3638C22.6947 8.66602 22.7072 9.05684 22.7072 12.3549C22.7072 15.6529 22.6947 16.0453 22.6339 17.3475C22.5793 18.5524 22.375 19.2058 22.205 19.6414C22.005 20.178 21.6857 20.6632 21.2708 21.061C20.8341 21.4936 20.4192 21.7608 19.8359 21.9848C19.3992 22.1547 18.7379 22.3555 17.5198 22.4112C16.205 22.4699 15.8104 22.4838 12.4789 22.4838C9.14746 22.4838 8.7513 22.4699 7.4365 22.4112C6.21996 22.3555 5.56022 22.1547 5.12039 21.9848C4.57841 21.787 4.08809 21.4713 3.6855 21.061C3.27024 20.6626 2.95046 20.1769 2.7497 19.6399C2.57969 19.2058 2.37538 18.5508 2.32079 17.3459C2.26152 16.0437 2.24904 15.6529 2.24904 12.3518C2.24904 9.0522 2.26152 8.66293 2.32079 7.36071C2.37694 6.15581 2.57969 5.50083 2.75126 5.06522C2.97741 4.48903 3.24879 4.07658 3.6855 3.64405C4.12221 3.21152 4.53708 2.94428 5.12039 2.72029C5.56022 2.55037 6.21996 2.34956 7.4365 2.29395C8.58754 2.24142 9.0336 2.22598 11.3591 2.22443V2.22752ZM19.1387 4.27894C18.9421 4.27894 18.7474 4.3173 18.5657 4.39183C18.3841 4.46635 18.219 4.57558 18.08 4.71329C17.9409 4.85099 17.8306 5.01447 17.7554 5.19439C17.6801 5.37431 17.6414 5.56715 17.6414 5.7619C17.6414 5.95664 17.6801 6.14948 17.7554 6.3294C17.8306 6.50932 17.9409 6.6728 18.08 6.8105C18.219 6.94821 18.3841 7.05744 18.5657 7.13197C18.7474 7.20649 18.9421 7.24485 19.1387 7.24485C19.5358 7.24485 19.9166 7.08861 20.1974 6.8105C20.4782 6.5324 20.636 6.1552 20.636 5.7619C20.636 5.36859 20.4782 4.9914 20.1974 4.71329C19.9166 4.43518 19.5358 4.27894 19.1387 4.27894ZM12.4789 6.01215C11.629 5.99901 10.7849 6.15347 9.99589 6.46652C9.20682 6.77957 8.48852 7.24496 7.8828 7.8356C7.27708 8.42623 6.79605 9.13031 6.4677 9.90685C6.13935 10.6834 5.97026 11.5168 5.97026 12.3587C5.97026 13.2006 6.13935 14.0341 6.4677 14.8106C6.79605 15.5871 7.27708 16.2912 7.8828 16.8819C8.48852 17.4725 9.20682 17.9379 9.99589 18.2509C10.7849 18.564 11.629 18.7184 12.4789 18.7053C14.1611 18.6793 15.7655 17.9992 16.9458 16.8118C18.1261 15.6245 18.7876 14.025 18.7876 12.3587C18.7876 10.6925 18.1261 9.093 16.9458 7.90561C15.7655 6.71823 14.1611 6.03814 12.4789 6.01215ZM12.4789 8.23812C13.5821 8.23812 14.6401 8.67217 15.4202 9.44479C16.2003 10.2174 16.6386 11.2653 16.6386 12.358C16.6386 13.4506 16.2003 14.4985 15.4202 15.2711C14.6401 16.0437 13.5821 16.4778 12.4789 16.4778C11.3757 16.4778 10.3177 16.0437 9.53761 15.2711C8.75752 14.4985 8.31928 13.4506 8.31928 12.358C8.31928 11.2653 8.75752 10.2174 9.53761 9.44479C10.3177 8.67217 11.3757 8.23812 12.4789 8.23812Z" fill="#DAC182"/>
</g>
<defs>
<clipPath id="clip0_63_30">
<rect width="25" height="25" fill="white"/>
</clipPath>
</defs>
</svg>
